<?xml version="1.0" standalone="no"?>
<!DOCTYPE svg PUBLIC "-//W3C//DTD SVG 20010904//EN"
 "http://www.w3.org/TR/2001/REC-SVG-20010904/DTD/svg10.dtd">
<svg version="1.0" xmlns="http://www.w3.org/2000/svg"
 width="397.000000pt" height="340.000000pt" viewBox="0 0 397.000000 340.000000"
 preserveAspectRatio="xMidYMid meet">

<g transform="translate(0.000000,340.000000) scale(0.100000,-0.100000)"
fill="#000000" stroke="none">
<path d="M1736 2719 c-329 -94 -566 -346 -636 -677 -21 -95 -21 -104 -6 -127
9 -14 24 -25 34 -25 36 0 51 24 63 100 39 254 194 467 426 583 39 20 100 44
135 53 35 8 80 20 100 25 28 7 39 16 44 35 14 56 -39 67 -160 33z"/>
<path d="M1990 2725 c-20 -24 -4 -64 28 -70 208 -44 334 -107 453 -227 124
-126 218 -324 219 -458 0 -44 24 -80 54 -80 49 0 57 45 31 170 -46 218 -183
417 -373 544 -152 101 -374 166 -412 121z"/>
<path d="M1864 2551 c-35 -21 -57 -66 -52 -107 3 -25 7 -29 32 -29 25 0 31 5
38 32 11 41 41 59 74 44 36 -16 31 -53 -11 -85 -22 -17 -36 -38 -40 -60 -6
-28 -12 -35 -37 -40 -30 -6 -61 -34 -130 -118 -32 -39 -66 -59 -253 -151 -225
-111 -243 -125 -224 -174 12 -31 139 -233 147 -233 4 0 25 11 47 25 22 13 43
25 48 25 4 0 7 -65 7 -145 0 -170 1 -171 105 -163 82 7 139 34 206 100 30 30
71 60 90 67 19 7 44 17 56 21 55 22 42 90 -18 90 -43 0 -138 -52 -184 -100
-40 -43 -89 -70 -123 -70 -17 0 -20 11 -25 110 -6 102 -9 114 -37 155 -17 25
-35 45 -39 45 -5 0 -30 -9 -56 -21 -25 -11 -48 -19 -50 -17 -14 16 -76 121
-73 123 7 8 281 136 283 133 1 -2 15 -27 31 -57 117 -218 414 -213 524 9 12
25 24 46 25 48 3 3 265 -126 275 -135 4 -4 -44 -98 -60 -116 -4 -4 -28 1 -54
13 -26 11 -53 20 -60 20 -20 0 -56 -75 -56 -116 0 -72 -6 -80 -73 -98 -121
-34 -221 -89 -305 -169 -103 -98 -145 -119 -248 -125 -66 -4 -89 -1 -127 16
-35 16 -54 19 -77 12 -29 -8 -33 -5 -79 50 -69 83 -135 219 -162 335 -18 78
-26 99 -44 107 -35 16 -65 -5 -65 -45 0 -56 49 -217 90 -296 56 -108 153 -226
241 -294 l76 -57 57 25 c32 14 96 35 142 45 114 27 149 46 241 136 113 110
193 151 348 178 l70 12 3 87 c1 48 5 87 8 87 2 0 27 -11 54 -25 l50 -25 24 39
c14 21 47 78 75 126 42 73 48 91 40 109 -8 16 -74 54 -216 126 -222 111 -254
133 -283 190 -21 42 -61 75 -103 85 -35 9 -35 37 -1 55 50 27 68 95 39 150
-30 58 -120 78 -181 41z m120 -315 c21 -9 47 -34 70 -69 20 -30 48 -63 62 -72
14 -9 24 -19 21 -21 -7 -8 -136 53 -173 81 -31 24 -32 24 -50 4 -18 -20 -118
-72 -164 -85 -23 -6 -22 -4 8 21 19 16 52 53 74 82 53 73 87 86 152 59z m-28
-157 c4 -6 43 -29 87 -49 l81 -38 -45 -45 c-90 -91 -214 -87 -299 9 l-33 38
80 37 c44 20 83 41 87 48 9 14 33 14 42 0z"/>
<path d="M2717 1797 c-11 -7 -27 -52 -42 -111 -37 -148 -112 -293 -192 -369
-26 -24 -34 -26 -76 -21 l-47 7 0 48 c0 47 -1 49 -28 49 -34 0 -120 -28 -181
-60 -24 -12 -75 -53 -114 -92 -82 -82 -158 -123 -253 -138 -216 -35 -232 -47
-115 -84 277 -88 566 -38 794 135 152 115 282 335 318 538 12 72 12 74 -10 92
-27 22 -32 23 -54 6z m-457 -572 c0 -42 -3 -47 -42 -72 -46 -29 -129 -63 -153
-63 -41 0 61 126 128 159 61 30 67 28 67 -24z"/>
<path d="M436 745 c-24 -24 -24 -405 0 -429 21 -22 40 -20 58 6 12 17 16 50
17 138 0 93 2 111 12 96 76 -120 108 -166 116 -166 5 0 37 42 70 93 l61 92 0
-122 c0 -115 1 -123 22 -137 28 -20 33 -20 52 0 13 13 16 46 16 209 0 174 -2
195 -19 216 -30 37 -59 15 -132 -100 -35 -55 -66 -100 -69 -101 -3 0 -36 49
-75 108 -73 111 -96 129 -129 97z"/>
<path d="M932 744 c-12 -8 -22 -20 -22 -26 0 -6 36 -68 80 -138 l80 -127 0
-110 c0 -96 -2 -112 -19 -127 -24 -22 -53 -14 -66 16 -13 29 -54 36 -72 12
-21 -29 -15 -60 17 -93 55 -55 138 -51 196 10 28 30 29 33 34 162 l5 132 64
100 c36 55 71 107 78 116 32 38 1 99 -42 82 -10 -3 -46 -50 -81 -105 -35 -54
-66 -98 -68 -98 -3 0 -28 39 -57 87 -51 85 -81 123 -97 123 -4 0 -18 -7 -30
-16z"/>
<path d="M1537 746 c-96 -36 -152 -116 -152 -222 0 -159 165 -269 309 -206 58
26 67 46 33 79 -25 26 -26 26 -63 8 -50 -23 -107 -15 -145 21 -113 108 4 294
141 226 l41 -20 27 23 c22 20 25 27 16 42 -30 48 -139 74 -207 49z"/>
<path d="M1826 744 c-14 -13 -16 -47 -16 -213 0 -140 3 -200 12 -209 17 -17
249 -17 266 0 16 16 15 33 -4 52 -12 12 -36 16 -100 16 l-84 0 0 175 c0 162
-1 175 -19 185 -27 14 -37 13 -55 -6z"/>
<path d="M2247 746 c-57 -21 -103 -61 -127 -111 -18 -38 -21 -59 -18 -120 3
-63 8 -80 34 -117 36 -50 120 -98 173 -98 132 0 225 96 226 231 0 56 -4 73
-30 115 -56 89 -169 133 -258 100z m134 -99 c90 -60 88 -181 -4 -237 -41 -25
-83 -25 -124 0 -45 27 -65 62 -65 114 -1 56 27 106 72 128 47 24 80 23 121 -5z"/>
<path d="M2676 750 c-84 -26 -122 -128 -73 -201 17 -25 40 -40 92 -60 72 -27
92 -45 82 -73 -11 -29 -53 -37 -100 -20 -74 27 -74 27 -92 0 -21 -32 -10 -50
50 -77 80 -37 168 -16 212 50 45 66 22 136 -54 170 -128 58 -142 73 -107 112
21 23 55 24 95 4 34 -18 64 -8 74 27 9 25 -19 50 -76 67 -42 13 -62 13 -103 1z"/>
<path d="M2940 731 c-16 -31 -13 -383 3 -405 11 -15 31 -19 103 -23 120 -5
152 1 160 33 11 43 -10 54 -102 54 l-84 0 0 50 0 50 64 0 c70 0 90 12 84 52
-3 21 -9 23 -73 28 l-70 5 -3 43 -3 42 65 0 c100 0 140 24 116 71 -10 17 -22
19 -130 19 -108 0 -120 -2 -130 -19z"/>
<path d="M3260 735 c-7 -8 -10 -25 -6 -39 6 -26 34 -37 79 -32 l27 3 0 -167
c0 -154 2 -168 20 -185 17 -15 24 -16 45 -7 l25 12 0 170 0 170 39 0 c22 0 52
4 66 10 22 8 26 15 23 42 l-3 33 -151 3 c-125 2 -153 0 -164 -13z"/>
</g>
</svg>
